<svg width="20" height="19" viewBox="0 0 20 19" fill="none" xmlns="http://www.w3.org/2000/svg">
<path d="M4.14062 3.64065H19.414L17.0703 11.8438H6.48437" stroke="#242222" stroke-width="1.4" stroke-miterlimit="10" stroke-linecap="round" stroke-linejoin="round"/>
<path d="M9.99999 16.5313C9.99999 17.1784 9.47531 17.7031 8.82812 17.7031C8.18094 17.7031 7.65625 17.1784 7.65625 16.5313C7.65625 15.8841 8.18094 15.3594 8.82812 15.3594C9.47531 15.3594 9.99999 15.8841 9.99999 16.5313Z" stroke="#242222" stroke-width="1.4" stroke-miterlimit="10" stroke-linecap="round" stroke-linejoin="round"/>
<path d="M15.8984 16.5313C15.8984 17.1784 15.3737 17.7031 14.7266 17.7031C14.0794 17.7031 13.5547 17.1784 13.5547 16.5313C13.5547 15.8841 14.0794 15.3594 14.7266 15.3594C15.3737 15.3594 15.8984 15.8841 15.8984 16.5313Z" stroke="#242222" stroke-width="1.4" stroke-miterlimit="10" stroke-linecap="round" stroke-linejoin="round"/>
<path d="M17.0703 14.1875H7.20866C6.33753 14.1875 5.77093 13.2707 6.1605 12.4915L6.4844 11.8438" stroke="#242222" stroke-width="1.4" stroke-miterlimit="10" stroke-linecap="round" stroke-linejoin="round"/>
<path d="M0.585938 1.29691H3.47112C4.46882 4.78943 6.48436 11.8438 6.48436 11.8438" stroke="#242222" stroke-width="1.4" stroke-miterlimit="10" stroke-linecap="round" stroke-linejoin="round"/>
</svg>
