<svg width="25" height="25" viewBox="0 0 25 25" fill="none" xmlns="http://www.w3.org/2000/svg">
<g clip-path="url(#clip0_14_17)">
<path d="M14.8661 12.3661C14.9256 12.4256 14.9553 12.4941 14.9553 12.5714C14.9553 12.6488 14.9256 12.7173 14.8661 12.7768L10.7053 16.9375C10.6458 16.997 10.5774 17.0268 10.5 17.0268C10.4226 17.0268 10.3541 16.997 10.2946 16.9375L9.8482 16.4911C9.78867 16.4316 9.75891 16.3631 9.75891 16.2857C9.75891 16.2083 9.78867 16.1399 9.8482 16.0804L13.3571 12.5714L9.8482 9.06251C9.78867 9.00299 9.75891 8.93453 9.75891 8.85715C9.75891 8.77977 9.78867 8.71132 9.8482 8.65179L10.2946 8.20537C10.3541 8.14584 10.4226 8.11608 10.5 8.11608C10.5774 8.11608 10.6458 8.14584 10.7053 8.20537L14.8661 12.3661Z" fill="#333333"/>
</g>
<defs>
<clipPath id="clip0_14_17">
<rect width="5.72" height="16" fill="white" transform="matrix(1 0 0 -1 9.64001 20)"/>
</clipPath>
</defs>
</svg>
